<svg width="25" height="25" xmlns="http://www.w3.org/2000/svg">
<g>
<path fill-rule="evenodd" clip-rule="evenodd" d="M12.9304 12.9304C13.0418 12.8188 13.1742 12.7303 13.3199 12.6699C13.4655 12.6095 13.6217 12.5785 13.7794 12.5785C13.9371 12.5785 14.0932 12.6095 14.2389 12.6699C14.3846 12.7303 14.517 12.8188 14.6284 12.9304L19.2484 17.5504C19.4736 17.7754 19.6001 18.0807 19.6002 18.399C19.6004 18.7173 19.474 19.0226 19.249 19.2478C19.024 19.473 18.7187 19.5995 18.4004 19.5996C18.0821 19.5998 17.7768 19.4734 17.5516 19.2484L12.9316 14.6284C12.82 14.517 12.7315 14.3846 12.6711 14.2389C12.6107 14.0933 12.5797 13.9371 12.5797 13.7794C12.5797 13.6217 12.6107 13.4656 12.6711 13.3199C12.7315 13.1742 12.82 13.0419 12.9316 12.9304H12.9304Z" fill="white"/>
<path fill-rule="evenodd" clip-rule="evenodd" d="M8.2 14.8C9.06672 14.8 9.92496 14.6293 10.7257 14.2976C11.5265 13.9659 12.254 13.4798 12.8669 12.8669C13.4798 12.254 13.9659 11.5265 14.2976 10.7257C14.6293 9.92496 14.8 9.06672 14.8 8.19999C14.8 7.33327 14.6293 6.47503 14.2976 5.67428C13.9659 4.87353 13.4798 4.14596 12.8669 3.53309C12.254 2.92022 11.5265 2.43407 10.7257 2.10239C9.92496 1.77071 9.06672 1.59999 8.2 1.59999C6.44957 1.59999 4.77084 2.29535 3.5331 3.53309C2.29535 4.77083 1.6 6.44957 1.6 8.19999C1.6 9.95042 2.29535 11.6292 3.5331 12.8669C4.77084 14.1046 6.44957 14.8 8.2 14.8ZM16 8.19999C16 10.2687 15.1782 12.2526 13.7154 13.7154C12.2526 15.1782 10.2687 16 8.2 16C6.13131 16 4.14735 15.1782 2.68457 13.7154C1.22178 12.2526 0.4 10.2687 0.4 8.19999C0.4 6.13131 1.22178 4.14735 2.68457 2.68456C4.14735 1.22178 6.13131 0.399994 8.2 0.399994C10.2687 0.399994 12.2526 1.22178 13.7154 2.68456C15.1782 4.14735 16 6.13131 16 8.19999Z" fill="white"/>
</g>
<defs>
<clipPath id="clip0">
<rect width="19.2" height="19.2" fill="white" transform="translate(0.4 0.399994)"/>
</clipPath>
</defs>
</svg>
